<?xml version="1.0" standalone="no"?>
<!DOCTYPE svg PUBLIC "-//W3C//DTD SVG 20010904//EN"
 "http://www.w3.org/TR/2001/REC-SVG-20010904/DTD/svg10.dtd">
<svg version="1.0" xmlns="http://www.w3.org/2000/svg"
 width="615.000000pt" height="615.000000pt" viewBox="0 0 615.000000 615.000000"
 preserveAspectRatio="xMidYMid meet">
<metadata>
Created by potrace 1.14, written by Peter Selinger 2001-2017
</metadata>
<g transform="translate(0.000000,615.000000) scale(0.100000,-0.100000)"
fill="#000000" stroke="none">
<path d="M280 6093 c-100 -35 -172 -109 -204 -209 -15 -43 -16 -127 -14 -749
l3 -700 25 -50 c31 -64 91 -124 155 -155 l50 -25 720 0 720 0 50 25 c64 31
124 91 155 155 l25 50 0 720 0 720 -25 50 c-31 64 -91 124 -155 155 l-50 25
-705 2 c-622 2 -710 0 -750 -14z m1500 -22 c61 -32 116 -86 148 -146 l27 -50
0 -720 0 -720 -27 -50 c-32 -60 -87 -114 -148 -146 l-45 -24 -720 0 -720 0
-45 24 c-61 32 -116 86 -148 146 l-27 50 0 720 0 720 24 45 c42 81 117 145
201 171 14 4 342 7 730 6 l705 -2 45 -24z"/>
<path d="M970 5130 l0 -330 45 0 45 0 0 330 0 330 -45 0 -45 0 0 -330z"/>
<path d="M2330 6093 c-100 -35 -172 -109 -204 -209 -15 -43 -16 -127 -14 -749
l3 -700 25 -50 c31 -64 91 -124 155 -155 l50 -25 725 0 725 0 50 25 c28 13 68
43 90 65 22 22 52 63 65 90 l25 50 0 720 0 720 -25 50 c-31 64 -91 124 -155
155 l-50 25 -710 2 c-626 2 -715 0 -755 -14z m1510 -22 c61 -32 116 -86 148
-146 l27 -50 0 -720 0 -720 -27 -50 c-32 -60 -87 -114 -148 -146 l-45 -24
-725 0 -725 0 -45 24 c-61 32 -116 86 -148 146 l-27 50 0 720 0 720 24 45 c42
81 117 145 201 171 14 4 345 7 735 6 l710 -2 45 -24z"/>
<path d="M2880 5462 l-35 -7 -3 -314 c-1 -182 2 -319 7 -324 15 -15 212 -21
287 -8 92 16 146 49 173 104 43 88 20 179 -56 224 l-45 26 24 13 c60 31 82
115 49 188 -17 40 -28 50 -77 73 -50 22 -73 26 -173 29 -64 1 -132 0 -151 -4z
m239 -82 c52 -15 81 -47 81 -90 0 -68 -59 -100 -187 -100 l-73 0 0 100 0 100
73 0 c39 0 87 -4 106 -10z m45 -280 c47 -18 66 -46 66 -99 0 -86 -62 -121
-214 -121 l-76 0 0 122 0 121 99 -7 c55 -3 111 -10 125 -16z"/>
<path d="M4390 6093 c-100 -35 -172 -109 -204 -209 -15 -43 -16 -127 -14 -749
l3 -700 25 -50 c31 -64 91 -124 155 -155 l50 -25 720 0 720 0 50 25 c28 13 68
43 90 65 22 22 52 63 65 90 l25 50 0 720 0 720 -25 50 c-13 28 -43 68 -65 90
-22 22 -62 52 -90 65 l-50 25 -705 2 c-622 2 -710 0 -750 -14z m1500 -22 c61
-32 116 -86 148 -146 l27 -50 0 -720 0 -720 -27 -50 c-32 -60 -87 -114 -148
-146 l-45 -24 -720 0 -720 0 -45 24 c-61 32 -116 86 -148 146 l-27 50 0 720 0
720 24 45 c42 81 117 145 201 171 14 4 342 7 730 6 l705 -2 45 -24z"/>
<path d="M4930 5130 l0 -330 215 0 215 0 0 40 0 40 -165 0 -165 0 0 115 0 115
135 0 135 0 0 40 0 40 -135 0 -135 0 0 95 0 95 155 0 155 0 0 40 0 40 -205 0
-205 0 0 -330z"/>
<path d="M280 4023 c-100 -35 -172 -109 -204 -209 -15 -43 -16 -128 -14 -754
l3 -705 25 -50 c31 -64 91 -124 155 -155 l50 -25 720 0 720 0 50 25 c64 31
124 91 155 155 l25 50 0 725 0 725 -25 50 c-31 64 -91 124 -155 155 l-50 25
-705 2 c-622 2 -710 0 -750 -14z m1500 -22 c61 -32 116 -86 148 -146 l27 -50
0 -725 0 -725 -27 -50 c-32 -60 -87 -114 -148 -146 l-45 -24 -720 0 -720 0
-45 24 c-61 32 -116 86 -148 146 l-27 50 0 725 0 725 24 45 c42 81 117 145
201 171 14 4 342 7 730 6 l705 -2 45 -24z"/>
<path d="M992 3396 c-83 -27 -133 -73 -183 -166 -21 -40 -24 -58 -24 -165 0
-105 3 -127 24 -172 26 -59 91 -124 148 -148 59 -26 176 -30 253 -11 36 9 68
20 72 24 4 4 3 24 -3 43 l-11 36 -60 -18 c-113 -36 -200 -21 -263 45 -50 51
-67 106 -67 208 1 200 143 304 328 239 l55 -20 10 26 c5 15 8 34 7 42 -8 39
-202 64 -286 37z"/>
<path d="M2330 4023 c-100 -35 -172 -109 -204 -209 -15 -43 -16 -128 -14 -754
l3 -705 25 -50 c31 -64 91 -124 155 -155 l50 -25 725 0 725 0 50 25 c64 31
124 91 155 155 l25 50 0 725 0 725 -25 50 c-13 28 -43 68 -65 90 -22 22 -62
52 -90 65 l-50 25 -710 2 c-626 2 -715 0 -755 -14z m1510 -22 c61 -32 116 -86
148 -146 l27 -50 0 -725 0 -725 -27 -50 c-32 -60 -87 -114 -148 -146 l-45 -24
-725 0 -725 0 -45 24 c-61 32 -116 86 -148 146 l-27 50 0 725 0 725 24 45 c42
81 117 145 201 171 14 4 345 7 735 6 l710 -2 45 -24z"/>
<path d="M2810 3060 l0 -330 50 0 50 0 0 155 0 155 160 0 160 0 0 -155 0 -155
50 0 50 0 0 330 0 330 -50 0 -50 0 0 -135 0 -135 -160 0 -160 0 0 135 0 135
-50 0 -50 0 0 -330z"/>
<path d="M4390 4023 c-100 -35 -172 -109 -204 -209 -15 -43 -16 -128 -14 -754
l3 -705 25 -50 c31 -64 91 -124 155 -155 l50 -25 720 0 720 0 50 25 c28 13 68
43 90 65 22 22 52 63 65 90 l25 50 0 725 0 725 -25 50 c-31 64 -91 124 -155
155 l-50 25 -705 2 c-622 2 -710 0 -750 -14z m1500 -22 c61 -32 116 -86 148
-146 l27 -50 0 -725 0 -725 -27 -50 c-32 -60 -87 -114 -148 -146 l-45 -24
-720 0 -720 0 -45 24 c-61 32 -116 86 -148 146 l-27 50 0 725 0 725 24 45 c42
81 117 145 201 171 14 4 342 7 730 6 l705 -2 45 -24z"/>
<path d="M5072 3396 c-94 -31 -163 -103 -198 -208 -24 -72 -16 -224 15 -295
26 -59 91 -124 148 -148 53 -23 173 -29 263 -13 l75 13 3 158 3 157 -46 0 -45
0 0 -124 0 -123 -31 -7 c-97 -19 -180 1 -234 58 -50 51 -67 106 -67 209 1 200
137 298 331 238 l60 -19 15 37 14 36 -41 19 c-55 25 -204 32 -265 12z"/>
<path d="M280 1943 c-100 -35 -172 -109 -204 -209 -15 -43 -16 -127 -14 -749
l3 -700 25 -50 c31 -64 91 -124 155 -155 l50 -25 720 0 720 0 50 25 c64 31
124 91 155 155 l25 50 0 720 0 720 -25 50 c-13 28 -43 68 -65 90 -22 22 -62
52 -90 65 l-50 25 -705 2 c-622 2 -710 0 -750 -14z m1500 -22 c61 -32 116 -86
148 -146 l27 -50 0 -720 0 -720 -27 -50 c-32 -60 -87 -114 -148 -146 l-45 -24
-720 0 -720 0 -45 24 c-61 32 -116 86 -148 146 l-27 50 0 720 0 720 24 45 c42
81 117 145 201 171 14 4 342 7 730 6 l705 -2 45 -24z"/>
<path d="M966 1308 c-31 -49 -256 -611 -256 -640 0 -5 21 -8 47 -6 l47 3 29
83 30 82 151 0 151 0 29 -85 29 -85 50 0 c48 0 49 1 43 26 -19 76 -221 575
-252 622 -10 16 -24 22 -49 22 -25 0 -39 -6 -49 -22z m124 -276 c24 -62 41
-115 38 -118 -3 -2 -57 -3 -121 -2 l-116 3 49 126 c26 69 53 137 60 149 l13
24 17 -35 c9 -19 36 -85 60 -147z"/>
<path d="M2330 1943 c-100 -35 -172 -109 -204 -209 -15 -43 -16 -127 -14 -749
l3 -700 25 -50 c31 -64 91 -124 155 -155 l50 -25 725 0 725 0 50 25 c64 31
124 91 155 155 l25 50 0 720 0 720 -25 50 c-31 64 -91 124 -155 155 l-50 25
-710 2 c-626 2 -715 0 -755 -14z m1510 -22 c61 -32 116 -86 148 -146 l27 -50
0 -720 0 -720 -27 -50 c-32 -60 -87 -114 -148 -146 l-45 -24 -725 0 -725 0
-45 24 c-61 32 -116 86 -148 146 l-27 50 0 720 0 720 24 45 c42 81 117 145
201 171 14 4 345 7 735 6 l710 -2 45 -24z"/>
<path d="M2895 1317 c-3 -7 -4 -156 -3 -332 l3 -320 45 0 45 0 3 153 3 152
134 0 135 0 0 40 0 40 -135 0 -135 0 0 100 0 100 155 0 155 0 0 40 0 40 -200
0 c-152 0 -202 -3 -205 -13z"/>
<path d="M4390 1943 c-100 -35 -172 -109 -204 -209 -15 -43 -16 -127 -14 -749
l3 -700 25 -50 c31 -64 91 -124 155 -155 l50 -25 720 0 720 0 50 25 c64 31
124 91 155 155 l25 50 0 720 0 720 -25 50 c-31 64 -91 124 -155 155 l-50 25
-705 2 c-622 2 -710 0 -750 -14z m1500 -22 c61 -32 116 -86 148 -146 l27 -50
0 -720 0 -720 -27 -50 c-32 -60 -87 -114 -148 -146 l-45 -24 -720 0 -720 0
-45 24 c-61 32 -116 86 -148 146 l-27 50 0 720 0 720 24 45 c42 81 117 145
201 171 14 4 342 7 730 6 l705 -2 45 -24z"/>
<path d="M4883 1324 l-23 -5 0 -324 0 -324 46 -7 c81 -12 243 1 305 25 116 44
183 136 195 266 7 79 -12 176 -47 232 -29 47 -102 100 -163 119 -50 16 -267
28 -313 18z m302 -102 c88 -45 120 -106 120 -227 0 -69 -5 -98 -19 -125 -48
-91 -105 -122 -233 -128 l-93 -4 0 257 0 258 93 -5 c66 -4 103 -11 132 -26z"/>
</g>
</svg>
